<svg xmlns="http://www.w3.org/2000/svg" viewBox="0 0 32 32">
  <defs>
    <linearGradient id="pcb" x1="0" y1="0" x2="0" y2="1">
      <stop offset="0" stop-color="#16382E"/>
      <stop offset="1" stop-color="#0B241C"/>
    </linearGradient>
  </defs>
  <rect x="5.6" y="5.6" width="20.8" height="20.8" rx="3" fill="url(#pcb)"/>
  <rect x="5.6" y="5.6" width="20.8" height="20.8" rx="3" fill="none" stroke="#2E6B58" stroke-width="1"/>
  <g stroke="#5FB89B" stroke-width="1.1" stroke-opacity=".65">
    <path d="M11 5.6V2.8M16 5.6V2.8M21 5.6V2.8M11 29.2v-2.8M16 29.2v-2.8M21 29.2v-2.8M5.6 11H2.8M5.6 16H2.8M5.6 21H2.8M29.2 11h-2.8M29.2 16h-2.8M29.2 21h-2.8"/>
  </g>
  <g stroke="#3F8A70" stroke-width="0.9" stroke-opacity=".8" fill="none">
    <path d="M8.4 9.6h3.2v2.6M23.6 9.4h-3v2.8M8.4 22.4h3.4v-2.4M23.6 22.6h-3.2v-2.6"/>
  </g>
  <rect x="11.8" y="11.8" width="8.4" height="8.4" rx="1.6" fill="#9FE1CB"/>
  <rect x="13.4" y="13.4" width="5.2" height="5.2" rx="1" fill="#123A2E"/>
  <circle cx="16" cy="16" r="1.4" fill="#C9F2E3"/>
  <path d="M12.6 12.2q3.4-.8 6.8 0v1.2q-3.4-.8-6.8 0Z" fill="#E7FBF3" opacity=".8"/>
</svg>
